<svg width="58" height="57" viewBox="0 0 58 57" fill="none" xmlns="http://www.w3.org/2000/svg">
<circle opacity="0.2" cx="29.166" cy="28.5" r="28.5" fill="#1967D2"/>
<ellipse cx="29.166" cy="28.5" rx="21.5" ry="21.5" fill="#1967D2"/>
<path d="M34.3289 28.8354V24.7906L29.6656 22.313C28.1095 23.1388 26.5568 23.9647 25.0024 24.7906V31.0545H33.3652H37.6982C37.8565 30.7223 38.0183 30.3948 38.1493 30.0547C38.6874 28.6584 38.8048 27.157 38.5035 25.7137C38.1766 24.1403 37.3509 22.6405 36.0297 21.426C34.271 19.8087 31.9674 19 29.6656 19C27.3604 19 25.0569 19.8087 23.3015 21.426C21.5445 23.0448 20.666 25.1652 20.666 27.284C20.666 29.4043 21.5445 31.5263 23.3015 33.142L29.6656 39L36.0297 33.1436C36.2987 32.8959 36.5541 32.6295 36.7873 32.3521H34.8992L29.6656 37.1711L24.2941 32.2268C22.8129 30.8633 22.0706 29.0721 22.0706 27.284C22.0706 25.4958 22.8129 23.7062 24.2941 22.3412C25.777 20.9746 27.723 20.2929 29.6656 20.2929C31.6082 20.2929 33.5525 20.9762 35.0354 22.3396C36.1523 23.3677 36.8469 24.6308 37.1227 25.9535C37.3883 27.2197 37.2691 28.5377 36.7703 29.7569H26.4087V25.5335C27.4966 24.9552 28.5811 24.3785 29.6656 23.8018L32.9209 25.5335V28.8386H34.3289V28.8354Z" fill="white"/>
</svg>
