<svg width="8" height="12" viewBox="0 0 8 12" fill="none" xmlns="http://www.w3.org/2000/svg">
<path d="M0.666421 6.46824L6.00657 11.8083C6.13008 11.9319 6.29496 12 6.47076 12C6.64657 12 6.81144 11.9319 6.93496 11.8083L7.32822 11.4151C7.58412 11.1589 7.58412 10.7425 7.32822 10.4867L2.84396 6.00249L7.3332 1.51326C7.45671 1.38965 7.5249 1.22487 7.5249 1.04916C7.5249 0.873261 7.45671 0.708482 7.3332 0.584775L6.93993 0.191706C6.81632 0.0680971 6.65154 0 6.47574 0C6.29994 0 6.13506 0.0680971 6.01155 0.191706L0.666421 5.53664C0.542617 5.66064 0.474618 5.8262 0.475008 6.00219C0.474618 6.17888 0.542617 6.34434 0.666421 6.46824Z" fill="#0D263B"/>
</svg>
