<svg width="17" height="17" viewBox="0 0 17 17" fill="none" xmlns="http://www.w3.org/2000/svg">
<g clip-path="url(#clip0_1987_19922)">
<path d="M16.149 0.146667L0.147593 16.1481C-0.165849 16.4616 0.0565081 17 0.500424 17H16.5019C16.7775 17 17.0009 16.7766 17.0009 16.501V0.499531C17.0009 0.0562469 16.463 -0.167208 16.149 0.146667ZM16.0029 16.002H1.70516L4.243 13.4641L4.93808 14.1592C5.03552 14.2567 5.16323 14.3054 5.29091 14.3054C5.7315 14.3054 5.95902 13.7688 5.64374 13.4535L4.94866 12.7584L6.37206 11.335L7.06714 12.0301C7.16458 12.1276 7.29229 12.1763 7.41997 12.1763C7.86056 12.1763 8.08807 11.6397 7.7728 11.3244L7.07775 10.6294L8.50115 9.20596L9.19623 9.90104C9.29367 9.99848 9.42138 10.0472 9.54906 10.0472C9.98965 10.0472 10.2172 9.51058 9.90189 9.19531L9.20684 8.50026L10.6302 7.07686L11.3253 7.77195C11.4228 7.86939 11.5505 7.91809 11.6782 7.91809C12.1187 7.91809 12.3463 7.38149 12.031 7.06622L11.3359 6.37117L12.7593 4.94777L13.4544 5.64285C13.5519 5.74029 13.6796 5.789 13.8072 5.789C14.2478 5.789 14.4753 5.2524 14.1601 4.93713L13.465 4.24208L16.0029 1.70423V16.002H16.0029Z" fill="#696969"/>
<path d="M12.9214 8.39661L8.3971 12.9209C8.08366 13.2344 8.30602 13.7728 8.74994 13.7728H13.2743C13.5498 13.7728 13.7733 13.5494 13.7733 13.2738V8.74947C13.7733 8.30619 13.2353 8.08273 12.9214 8.39661ZM12.7753 12.7748H9.95467L12.7753 9.95417V12.7748Z" fill="#696969"/>
</g>
<defs>
<clipPath id="clip0_1987_19922">
<rect width="17" height="17" fill="white"/>
</clipPath>
</defs>
</svg>
